<?xml version="1.0" standalone="no"?>
<!DOCTYPE svg PUBLIC "-//W3C//DTD SVG 20010904//EN"
 "http://www.w3.org/TR/2001/REC-SVG-20010904/DTD/svg10.dtd">
<svg version="1.0" xmlns="http://www.w3.org/2000/svg"
 width="461.000000pt" height="299.000000pt" viewBox="0 0 461.000000 299.000000"
 preserveAspectRatio="xMidYMid meet">

<g transform="translate(0.000000,299.000000) scale(0.100000,-0.100000)"
fill="#000000" stroke="none">
<path d="M1060 2335 l0 -435 140 0 140 0 0 -156 c0 -143 -1 -155 -17 -150 -28
8 -245 56 -254 56 -5 0 -9 -80 -9 -178 0 -174 0 -177 22 -187 32 -14 33 -37 5
-99 -14 -30 -23 -57 -19 -60 17 -18 58 2 138 66 136 109 216 138 283 103 40
-20 55 -63 42 -111 -17 -61 -15 -66 25 -62 35 3 35 4 64 90 35 103 84 204 151
309 l49 76 0 291 0 292 -140 0 -140 0 0 129 c0 72 3 132 8 135 4 2 63 -9 132
-24 69 -16 128 -29 133 -30 4 0 6 84 5 188 l-3 187 -377 3 -378 2 0 -435z"/>
<path d="M1900 2233 l0 -537 58 55 c31 31 78 71 104 88 51 34 166 81 198 81
20 0 20 8 20 425 l0 425 -190 0 -190 0 0 -537z"/>
<path d="M2360 2351 l0 -418 56 -7 c71 -8 111 -25 158 -66 59 -52 80 -102 80
-191 0 -64 -5 -86 -32 -143 -18 -37 -44 -82 -58 -99 -43 -51 -139 -123 -188
-142 -42 -16 -47 -16 -70 -1 -31 20 -41 66 -32 154 5 57 11 71 34 89 l27 23
-27 0 c-28 0 -28 1 -28 66 l0 65 -51 -27 c-88 -48 -196 -178 -288 -345 -34
-64 -41 -85 -41 -132 l0 -57 180 0 180 0 19 38 c24 47 63 86 101 102 68 28
147 -22 157 -99 5 -37 8 -41 34 -41 22 0 37 12 74 60 26 33 58 68 71 76 l24
16 0 749 0 749 -190 0 -190 0 0 -419z"/>
<path d="M2827 2763 c-4 -3 -7 -328 -7 -721 l0 -714 28 7 c15 4 62 9 105 12
111 7 159 -8 225 -73 l52 -53 0 115 c0 63 4 114 8 114 4 0 17 -43 27 -97 l20
-96 40 -4 c52 -5 111 -40 136 -80 l21 -33 114 0 c79 0 114 3 114 12 0 6 -25
127 -55 269 -30 142 -55 262 -55 266 0 5 14 17 30 26 l30 18 0 520 0 519 -413
0 c-228 0 -417 -3 -420 -7z m481 -599 l2 -170 -40 -33 -40 -32 0 206 0 206 38
-3 37 -3 3 -171z"/>
<path d="M3745 2758 c-3 -7 -4 -377 -3 -823 l3 -810 255 0 255 0 6 270 c4 149
7 321 8 383 l1 112 105 0 105 0 0 170 0 170 -105 0 -105 0 0 90 0 90 105 0
105 0 0 180 0 180 -365 0 c-283 0 -367 -3 -370 -12z"/>
<path d="M2292 1879 c-76 -9 -175 -54 -251 -112 -65 -50 -173 -176 -164 -191
3 -6 2 -8 -2 -3 -12 10 -85 -102 -78 -120 5 -12 7 -12 14 -1 6 9 9 10 9 1 0
-16 52 -43 82 -43 22 -1 22 -1 -4 -16 -17 -9 -25 -20 -22 -29 4 -8 8 -15 11
-15 3 0 3 7 -1 15 -3 8 -1 15 4 15 6 0 10 -8 11 -17 0 -14 2 -15 6 -3 3 8 10
18 15 21 5 3 10 15 11 27 0 11 4 19 8 16 4 -2 24 21 44 51 55 82 176 199 237
229 106 51 191 42 218 -23 19 -47 5 -96 -41 -141 -22 -22 -49 -42 -60 -45 -17
-6 -19 -16 -19 -91 0 -101 6 -104 96 -46 116 75 183 179 192 293 12 167 -106
253 -316 228z m-456 -378 c-3 -5 1 -12 9 -15 13 -5 14 -10 4 -27 -10 -20 -12
-21 -21 -5 -5 9 -14 13 -20 10 -11 -7 -4 9 15 34 11 14 21 17 13 3z m114 -45
c0 -3 -4 -8 -10 -11 -5 -3 -10 -1 -10 4 0 6 5 11 10 11 6 0 10 -2 10 -4z m-70
-21 c0 -8 -2 -15 -4 -15 -2 0 -6 7 -10 15 -3 8 -1 15 4 15 6 0 10 -7 10 -15z"/>
<path d="M2360 1628 l1 -63 19 24 c22 26 26 71 8 89 -22 22 -28 12 -28 -50z"/>
<path d="M237 1343 c-17 -36 -22 -67 -22 -123 0 -64 4 -83 30 -129 34 -61 89
-110 160 -142 70 -31 197 -32 277 0 31 12 62 28 68 36 8 10 -4 7 -36 -7 -70
-33 -208 -32 -278 0 -122 56 -196 161 -196 276 1 34 7 78 14 99 19 52 9 46
-17 -10z"/>
<path d="M2883 1295 c-64 -20 -124 -58 -175 -113 -84 -89 -118 -185 -118 -329
0 -145 38 -210 139 -240 111 -32 226 0 310 86 l48 50 39 -14 c22 -8 68 -14
104 -14 152 0 260 95 260 227 0 29 -2 52 -5 52 -2 0 -24 -22 -49 -48 -74 -79
-159 -109 -252 -88 l-31 7 2 82 c1 55 7 91 17 107 25 40 30 66 18 110 -30 112
-168 169 -307 125z m137 -157 c27 -30 28 -94 0 -103 -10 -3 -31 -20 -45 -36
-30 -36 -33 -94 -9 -141 16 -32 16 -32 -19 -64 -106 -98 -216 -43 -203 101 7
69 50 166 93 207 64 61 145 77 183 36z"/>
<path d="M922 1236 c-5 -6 -24 -51 -42 -100 -43 -114 -109 -189 -202 -232 -55
-25 -75 -29 -158 -29 -86 0 -101 3 -162 32 -121 57 -198 162 -198 272 l0 54
-19 -24 c-54 -70 -74 -171 -51 -254 27 -95 118 -186 224 -222 73 -25 186 -22
258 6 31 12 85 44 120 71 34 27 64 47 66 45 2 -2 -13 -46 -32 -99 -39 -104
-43 -128 -22 -145 24 -20 61 -2 145 67 127 106 316 285 315 298 -1 7 4 10 10
8 18 -7 51 32 35 42 -8 5 -10 3 -4 -6 5 -9 4 -11 -3 -6 -19 11 -14 29 6 24 11
-3 19 0 19 7 0 8 -7 11 -15 7 -11 -4 -13 -1 -7 8 6 10 4 12 -9 7 -10 -4 -15
-3 -11 3 3 6 2 10 -4 10 -5 0 -15 -8 -20 -17 -6 -10 -11 -14 -11 -9 0 5 7 17
16 27 14 16 18 16 31 3 8 -8 20 -11 26 -7 7 4 4 9 -8 13 -18 6 -17 8 3 28 12
12 18 22 13 22 -16 0 -70 -48 -207 -182 -72 -70 -133 -128 -137 -128 -6 0 10
40 108 265 31 72 58 135 61 140 6 14 -124 15 -134 1z"/>
<path d="M2366 1198 c-30 -23 -76 -109 -76 -144 0 -45 -155 -219 -242 -271
-62 -38 -136 -55 -181 -42 -17 5 -46 23 -64 41 -18 17 -36 28 -40 25 -4 -4 -1
-13 7 -20 10 -10 11 -9 5 2 -6 10 -4 12 4 7 15 -10 7 -19 -19 -23 -11 -2 -29
-4 -40 -6 -26 -4 -37 -16 -24 -25 7 -4 8 -15 3 -27 -7 -19 -8 -19 -8 2 -1 15
-7 21 -20 20 -11 0 -17 -6 -14 -14 3 -7 10 -10 16 -6 6 4 7 1 3 -6 -9 -14 22
-53 36 -45 4 3 7 0 6 -8 -2 -7 3 -12 10 -10 8 1 11 -2 7 -7 -14 -23 59 -46
145 -46 97 0 127 11 217 81 31 24 58 42 60 40 5 -5 -51 -144 -84 -209 -14 -29
-43 -77 -63 -107 -37 -54 -38 -58 -42 -163 -2 -59 -1 -107 2 -107 3 0 23 17
46 38 104 96 235 348 325 627 38 114 71 200 85 215 40 45 64 94 64 133 0 71
-64 99 -124 55z"/>
<path d="M3348 1176 c28 -32 32 -44 32 -92 0 -71 -21 -118 -72 -166 -41 -38
-41 -38 -11 -28 41 15 110 74 129 112 9 17 16 50 16 74 1 63 -35 109 -102 129
-24 8 -23 7 8 -29z"/>
<path d="M1241 1063 c-2 -20 16 -24 30 -5 13 15 12 16 -3 4 -13 -10 -17 -10
-21 0 -4 9 -6 9 -6 1z"/>
<path d="M1296 1045 c-9 -26 -7 -32 5 -12 6 10 9 21 6 23 -2 3 -7 -2 -11 -11z"/>
<path d="M1197 833 c-31 -65 -60 -132 -63 -149 -14 -71 76 -96 188 -53 63 24
174 100 167 114 -2 6 -8 9 -13 7 -4 -1 -5 10 -1 25 l7 28 -26 -28 c-14 -15
-28 -27 -33 -27 -4 0 -2 5 4 11 6 6 9 17 6 24 -2 7 5 16 16 20 12 3 21 11 21
16 0 5 -24 -5 -52 -24 -66 -41 -81 -47 -98 -37 -13 8 -10 26 17 100 3 8 -2 6
-11 -5 -17 -20 -17 -20 -11 2 5 18 3 22 -9 17 -9 -3 -16 -1 -16 5 0 6 4 11 10
11 5 0 2 9 -7 19 -9 11 -22 17 -30 14 -9 -4 -11 0 -7 11 3 9 4 16 2 16 -2 0
-30 -53 -61 -117z m71 32 c-3 -3 -9 2 -12 12 -6 14 -5 15 5 6 7 -7 10 -15 7
-18z m42 -39 c0 -2 -8 -10 -17 -17 -16 -13 -17 -12 -4 4 13 16 21 21 21 13z
m114 -45 c3 -5 -3 -11 -15 -14 -16 -4 -18 -3 -8 9 13 16 16 17 23 5z m59 -41
c-7 -8 -52 -7 -47 1 2 4 15 6 28 5 13 0 22 -3 19 -6z"/>
<path d="M1612 920 c0 -19 2 -27 5 -17 2 9 2 25 0 35 -3 9 -5 1 -5 -18z"/>
<path d="M1751 894 c0 -11 3 -14 6 -6 3 7 2 16 -1 19 -3 4 -6 -2 -5 -13z"/>
<path d="M1611 864 c0 -11 3 -14 6 -6 3 7 2 16 -1 19 -3 4 -6 -2 -5 -13z"/>
<path d="M1551 818 c0 -16 -6 -27 -12 -25 -6 1 -15 -9 -20 -23 l-10 -25 26 26
c19 18 25 34 22 50 -4 22 -4 22 -6 -3z"/>
</g>
</svg>
